<?xml version="1.0" encoding="utf-8"?>
<!-- Generator: Adobe Illustrator 16.0.3, SVG Export Plug-In . SVG Version: 6.00 Build 0)  -->
<!DOCTYPE svg PUBLIC "-//W3C//DTD SVG 1.1//EN" "http://www.w3.org/Graphics/SVG/1.1/DTD/svg11.dtd">
<svg version="1.1" id="Warstwa_1" xmlns="http://www.w3.org/2000/svg" xmlns:xlink="http://www.w3.org/1999/xlink" x="0px" y="0px"
	 width="20px" height="20px" viewBox="0 0 20 20" enable-background="new 0 0 20 20" xml:space="preserve">
<g>
	<path fill="#7F8C8D" d="M18.461,20c-0.409,0-0.805-0.168-1.082-0.457l-4.123-4.111c-1.406,0.974-3.089,1.491-4.796,1.491
		C3.786,16.923,0,13.137,0,8.461C0,3.786,3.786,0,8.461,0c4.676,0,8.462,3.786,8.462,8.461c0,1.707-0.517,3.39-1.491,4.796
		l4.123,4.123C19.832,17.656,20,18.053,20,18.461C20,19.303,19.303,20,18.461,20z M8.461,3.077c-2.969,0-5.385,2.416-5.385,5.385
		s2.416,5.385,5.385,5.385s5.385-2.416,5.385-5.385S11.43,3.077,8.461,3.077z"/>
</g>
</svg>
